<?xml version="1.0" standalone="no"?>
<!DOCTYPE svg PUBLIC "-//W3C//DTD SVG 20010904//EN"
 "http://www.w3.org/TR/2001/REC-SVG-20010904/DTD/svg10.dtd">
<svg version="1.0" xmlns="http://www.w3.org/2000/svg"
 width="180.000000pt" height="180.000000pt" viewBox="0 0 180.000000 180.000000"
 preserveAspectRatio="xMidYMid meet">
<metadata>
Created by potrace 1.16, written by Peter Selinger 2001-2019
</metadata>
<g transform="translate(0.000000,180.000000) scale(0.100000,-0.100000)"
fill="#000000" stroke="none">
<path d="M1160 1286 c-116 -32 -211 -109 -262 -214 -31 -62 -33 -73 -33 -172
0 -98 2 -110 32 -170 173 -351 681 -280 752 104 29 155 -53 329 -193 411 -85
50 -205 66 -296 41z m252 -53 c82 -39 142 -99 182 -183 27 -57 31 -75 31 -150
-1 -91 -18 -144 -72 -223 -92 -134 -294 -184 -451 -113 -132 60 -214 190 -214
336 0 161 89 287 250 351 74 30 188 23 274 -18z"/>
<path d="M1185 1226 c-209 -53 -321 -270 -237 -459 45 -101 160 -187 272 -202
66 -9 162 17 227 61 196 135 187 430 -17 559 -71 45 -167 61 -245 41z m201
-50 c60 -28 115 -82 146 -145 19 -38 23 -62 23 -136 0 -86 -2 -94 -35 -149
-61 -100 -146 -149 -260 -150 -99 0 -163 28 -229 99 -187 206 -23 536 254 508
28 -2 73 -15 101 -27z"/>
<path d="M1163 1154 c-56 -20 -126 -84 -152 -139 -26 -55 -29 -164 -6 -219 58
-137 227 -204 360 -142 102 48 159 134 159 246 1 187 -183 317 -361 254z m172
-25 c61 -17 139 -101 155 -168 28 -118 -27 -233 -135 -282 -53 -24 -147 -24
-200 0 -56 25 -111 90 -129 152 -20 65 -20 73 0 140 19 63 92 142 146 158 46
13 115 13 163 0z"/>
<path d="M1215 1100 c-177 -42 -223 -257 -78 -366 122 -93 304 -14 320 138 9
90 -26 162 -100 206 -38 23 -100 33 -142 22z m96 -31 c72 -24 121 -93 121
-169 0 -131 -136 -219 -250 -161 -69 35 -102 88 -102 161 0 75 35 129 105 161
46 22 79 23 126 8z"/>
<path d="M258 1017 c-3 -234 -5 -257 -22 -276 -12 -13 -31 -21 -53 -21 -24 0
-33 -4 -33 -16 0 -25 77 -12 106 18 23 23 23 27 26 282 2 195 0 260 -9 263 -9
3 -13 -58 -15 -250z"/>
<path d="M318 999 l-3 -271 -37 -34 c-31 -28 -45 -34 -83 -34 -35 0 -45 -4
-45 -16 0 -14 9 -16 55 -12 46 4 62 10 90 38 20 19 40 50 45 70 5 19 10 146
10 283 0 209 -2 247 -15 247 -12 0 -15 -42 -17 -271z"/>
<path d="M385 1260 c-3 -5 -5 -124 -3 -262 3 -249 3 -254 -21 -301 -30 -62
-78 -95 -153 -103 -42 -5 -58 -11 -58 -22 0 -12 10 -14 52 -9 82 10 138 44
176 107 l32 54 0 273 c0 251 -4 296 -25 263z"/>
<path d="M448 993 l-3 -278 -29 -53 c-47 -84 -125 -132 -216 -132 -40 0 -50
-3 -50 -16 0 -14 9 -16 64 -12 123 10 217 88 250 209 22 78 24 559 2 559 -12
0 -15 -45 -18 -277z"/>
<path d="M560 900 c0 -322 2 -370 15 -370 13 0 15 48 15 370 0 322 -2 370 -15
370 -13 0 -15 -48 -15 -370z"/>
<path d="M690 900 c0 -322 2 -370 15 -370 13 0 15 48 15 370 0 322 -2 370 -15
370 -13 0 -15 -48 -15 -370z"/>
</g>
</svg>
