<?xml version="1.0" standalone="no"?>
<!DOCTYPE svg PUBLIC "-//W3C//DTD SVG 20010904//EN"
 "http://www.w3.org/TR/2001/REC-SVG-20010904/DTD/svg10.dtd">
<svg version="1.0" xmlns="http://www.w3.org/2000/svg"
 width="512.000000pt" height="512.000000pt" viewBox="0 0 512.000000 512.000000"
 preserveAspectRatio="xMidYMid meet">

<g transform="translate(0.000000,512.000000) scale(0.100000,-0.100000)"
fill="#000000" stroke="none">
<path d="M3460 3694 c-175 -25 -281 -58 -420 -130 -402 -208 -648 -663 -601
-1114 56 -530 452 -943 981 -1021 123 -18 312 -7 435 25 120 32 313 124 406
195 82 63 193 179 249 261 62 92 135 251 167 365 26 93 28 113 27 285 0 169
-2 194 -27 285 -120 444 -486 772 -937 840 -87 14 -218 18 -280 9z m291 -99
c468 -82 816 -456 869 -934 41 -369 -146 -768 -455 -972 -85 -56 -208 -114
-311 -146 -84 -25 -101 -27 -279 -27 -178 0 -196 2 -280 27 -320 97 -561 308
-688 601 -65 152 -82 237 -81 421 1 172 13 239 70 382 180 458 671 733 1155
648z"/>
<path d="M3465 3510 c-368 -40 -687 -302 -804 -659 -35 -107 -44 -184 -38
-335 6 -161 25 -242 88 -373 122 -255 358 -446 635 -515 114 -28 332 -31 436
-5 181 45 328 126 460 255 417 405 374 1091 -91 1444 -77 58 -240 139 -326
162 -62 16 -221 37 -265 35 -14 -1 -56 -5 -95 -9z m315 -106 c157 -39 361
-165 454 -279 68 -82 135 -205 167 -304 41 -125 51 -301 25 -432 -73 -358
-358 -631 -720 -690 -93 -15 -267 -7 -351 16 -79 22 -207 82 -281 132 -162
111 -292 298 -346 502 -29 110 -29 296 0 414 25 99 89 237 149 318 123 167
329 294 540 334 96 18 270 13 363 -11z"/>
<path d="M3405 3315 c-278 -62 -505 -278 -580 -550 -24 -89 -30 -274 -12 -362
65 -302 302 -540 602 -604 86 -18 256 -15 340 6 272 67 490 280 567 552 29
103 31 285 4 388 -39 146 -110 269 -217 370 -78 75 -106 94 -196 139 -140 70
-352 96 -508 61z m358 -96 c289 -81 497 -356 497 -659 0 -258 -150 -500 -380
-614 -345 -171 -751 -35 -920 309 -53 108 -70 179 -70 301 0 200 59 343 200
484 184 185 423 248 673 179z"/>
<path d="M3436 3134 c-225 -55 -403 -243 -446 -472 -47 -253 89 -519 321 -630
46 -22 112 -46 147 -53 85 -16 231 -6 309 21 180 63 329 224 378 410 22 83 19
234 -6 316 -90 298 -404 480 -703 408z m286 -94 c368 -113 476 -582 195 -847
-103 -98 -205 -137 -352 -135 -136 1 -244 45 -337 134 -99 97 -148 201 -156
333 -5 101 10 176 54 263 58 117 201 233 322 261 70 17 205 12 274 -9z"/>
<path d="M720 2893 l0 -718 -23 -39 c-35 -62 -75 -80 -189 -84 l-98 -4 0 -39
0 -39 105 0 c119 0 160 12 213 63 19 18 43 50 55 72 22 40 22 43 25 773 l3
732 -46 0 -45 0 0 -717z"/>
<path d="M908 2883 l-3 -728 -23 -57 c-31 -76 -108 -160 -179 -195 -50 -24
-71 -28 -175 -31 l-118 -4 0 -44 0 -44 78 0 c168 0 275 36 361 119 60 58 94
111 123 193 l23 63 3 728 3 727 -45 0 -45 0 -3 -727z"/>
<path d="M1088 2863 l-3 -748 -27 -69 c-66 -170 -204 -299 -363 -341 -36 -9
-103 -15 -172 -15 l-113 0 0 -45 0 -45 108 0 c273 0 475 118 590 346 68 135
66 101 69 922 l4 742 -45 0 -45 0 -3 -747z"/>
<path d="M1270 2879 c0 -815 1 -804 -70 -954 -75 -160 -181 -270 -332 -344
-117 -58 -180 -71 -330 -71 l-128 0 0 -45 0 -45 123 0 c67 0 152 7 188 14 261
56 488 253 584 511 54 142 55 158 55 941 l0 724 -45 0 -45 0 0 -731z"/>
<path d="M1600 2560 l0 -1050 45 0 45 0 0 1050 0 1050 -45 0 -45 0 0 -1050z"/>
<path d="M1780 2560 l0 -1050 45 0 45 0 0 1050 0 1050 -45 0 -45 0 0 -1050z"/>
<path d="M1960 2560 l0 -1050 45 0 45 0 0 1050 0 1050 -45 0 -45 0 0 -1050z"/>
<path d="M2150 2560 l0 -1050 40 0 40 0 0 1050 0 1050 -40 0 -40 0 0 -1050z"/>
</g>
</svg>
